:FULLY-SPECIFIED
:FORCE-ALL-JOINTS-BE-3DOF
:DEGREES
29
root 4.19915 16.9579 -26.6992 5.77301 -8.80165 -2.86722
lfemur -14.1651 2.18768 -18.0065
ltibia 42.6426 0 0
lfoot 9.1031 9.38396 -0.887329
ltoes -12.1229 0 0
rfemur -4.94195 5.73529 27.8477
rtibia 9.41035 0 0
rfoot -1.09009 0.262574 -0.0205584
rtoes -26.2817 0 0
lowerback 3.46997 -0.478264 1.13593
upperback -0.245289 -0.633859 1.82809
thorax -2.09682 -0.258361 1.72292
lowerneck -11.2673 -0.214594 -6.53497
upperneck 1.82772 0.166546 7.00129
head 2.71465 0.295225 2.84846
lclavicle -4.17448e-14 -4.72112e-15 2.24771e-30
lhumerus -37.2098 -14.5339 92.2026
lradius 69.0807 0 0
lwrist 15.9795 0 0
lhand -23.5773 -8.2048 -1.73036
lfingers 7.12502 0 0
lthumb 2.8795 21.3087 -1.69271
rclavicle -4.17448e-14 -4.72112e-15 2.24771e-30
rhumerus -50.5241 10.8747 -88.1435
rradius 75.8954 0 0
rwrist -17.66 0 0
rhand -37.6557 3.4951 -2.37178
rfingers 7.12502 0 0
rthumb -10.7004 -26.073 -2.31418
30
root 4.22267 16.9007 -26.3528 5.49179 -9.0508 -2.91899
lfemur -15.0278 3.75351 -17.6338
ltibia 45.8631 0 0
lfoot 8.97975 8.96273 -0.804565
ltoes -10.7216 0 0
rfemur -4.223 5.25496 27.9285
rtibia 10.4872 0 0
rfoot -4.39679 1.95426 0.159567
rtoes -19.3077 0 0
lowerback 3.54435 -0.359311 1.41719
upperback 0.0946124 -0.482753 1.69198
thorax -1.81731 -0.18213 1.35481
lowerneck -12.1756 -0.150189 -6.36046
upperneck 2.46422 0.272081 7.15927
head 3.0982 0.340726 2.95552
lclavicle 1.824e-14 3.76945e-14 -1.15598e-30
lhumerus -37.4552 -14.4958 92.0792
lradius 68.1388 0 0
lwrist 16.4365 0 0
lhand -24.0907 -8.58615 -1.80772
lfingers 7.12502 0 0
lthumb 2.38455 20.9173 -1.76408
rclavicle 1.824e-14 3.76945e-14 -1.15598e-30
rhumerus -49.6728 10.7668 -88.602
rradius 76.2458 0 0
rwrist -17.4358 0 0
rhand -38.0957 3.34965 -2.46922
rfingers 7.12502 0 0
rthumb -11.1241 -26.1865 -2.41081
31
root 4.24062 16.8457 -26.0085 5.39948 -9.26711 -2.90181
lfemur -16.0684 5.07397 -17.2478
ltibia 48.9957 0 0
lfoot 8.8932 8.59598 -0.720552
ltoes -9.6746 0 0
rfemur -3.76815 5.02569 27.8987
rtibia 12.0478 0 0
rfoot -6.4193 2.27908 0.181607
rtoes -13.4452 0 0
lowerback 3.51329 -0.301808 1.42592
upperback 0.245789 -0.413785 1.74433
thorax -1.64811 -0.145843 1.37602
lowerneck -12.5739 -0.128891 -6.63247
upperneck 2.82172 0.341124 7.34183
head 3.29071 0.383222 3.10493
lclavicle 1.82579e-14 -1.3045e-16 8.97896e-31
lhumerus -37.9376 -14.0632 92.2804
lradius 67.3437 0 0
lwrist 16.739 0 0
lhand -24.6322 -8.84969 -1.9894
lfingers 7.12502 0 0
lthumb 1.8628 20.6648 -1.93489
rclavicle 1.82579e-14 -1.3045e-16 8.97896e-31
rhumerus -48.921 11.2168 -88.8362
rradius 76.5765 0 0
rwrist -17.3888 0 0
rhand -37.8178 3.5849 -2.27893
rfingers 7.12502 0 0
rthumb -10.8573 -25.9875 -2.22255
32
root 4.2515 16.7758 -25.673 5.42232 -9.53567 -3.01116
lfemur -17.4368 6.35884 -16.6905
ltibia 52.1605 0 0
lfoot 9.1579 8.07416 -0.644051
ltoes -9.26366 0 0
rfemur -3.36899 5.27612 28.0398
rtibia 13.8453 0 0
rfoot -6.76095 1.62112 0.092723
rtoes -11.5811 0 0
lowerback 3.58529 -0.220967 1.32993
upperback 0.205967 -0.304254 1.92665
thorax -1.72858 -0.0907364 1.59984
lowerneck -12.5219 -0.140576 -6.90205
upperneck 2.93245 0.345275 7.37239
head 3.3103 0.396676 3.16502
lclavicle 1.46728e-14 1.00883e-14 -2.14711e-31
lhumerus -38.6586 -13.6836 92.6743
lradius 66.5882 0 0
lwrist 16.7905 0 0
lhand -25.2822 -8.2252 -2.23267
lfingers 7.12502 0 0
lthumb 1.2366 21.3313 -2.16379
rclavicle 1.46728e-14 1.00883e-14 -2.14711e-31
rhumerus -48.3389 11.8275 -89.0254
rradius 76.9809 0 0
rwrist -17.3339 0 0
rhand -37.0307 3.43395 -2.12145
rfingers 7.12502 0 0
rthumb -10.0991 -26.1917 -2.06675
33
root 4.2617 16.7406 -25.3279 5.29651 -9.7567 -3.11554
lfemur -18.6481 7.57836 -16.0231
ltibia 55.0675 0 0
lfoot 10.0871 7.98039 -0.551503
ltoes -8.75304 0 0
rfemur -3.08115 5.63471 28.1293
rtibia 15.669 0 0
rfoot -7.43049 0.810219 0.0322364
rtoes -10.3157 0 0
lowerback 3.78562 -0.164615 1.30932
upperback 0.244912 -0.224144 2.06216
thorax -1.79983 -0.0502046 1.75203
lowerneck -12.4427 -0.120213 -6.92109
upperneck 2.89653 0.381069 7.18412
head 3.27424 0.409715 3.09839
lclavicle 1.1691e-14 3.28989e-14 -4.19752e-30
lhumerus -39.2193 -13.3412 92.8714
lradius 65.7779 0 0
lwrist 16.7733 0 0
lhand -25.1626 -6.8115 -2.36344
lfingers 7.12502 0 0
lthumb 1.3517 22.7349 -2.29108
rclavicle 1.1691e-14 3.28989e-14 -4.19752e-30
rhumerus -47.5566 12.3582 -89.3188
rradius 77.333 0 0
rwrist -17.2073 0 0
rhand -36.6408 2.87045 -2.06931
rfingers 7.12502 0 0
rthumb -9.72324 -26.7766 -2.01529
34
root 4.27316 16.6928 -25.0001 5.07194 -9.93489 -3.32961
lfemur -19.7801 8.80166 -15.186
ltibia 57.9951 0 0
lfoot 10.9264 7.74812 -0.512549
ltoes -7.24017 0 0
rfemur -2.59571 6.00843 28.3526
rtibia 17.3066 0 0
rfoot -8.18727 -0.458931 -0.00233047
rtoes -10.5627 0 0
lowerback 4.0876 -0.123138 1.43757
upperback 0.473513 -0.163448 2.1993
thorax -1.73608 -0.0184062 1.82478
lowerneck -12.5199 -0.0882754 -6.93581
upperneck 2.61222 0.457845 7.0659
head 3.18934 0.436441 3.06205
lclavicle 4.37635e-15 -3.479e-16 -1.65935e-30
lhumerus -39.6149 -12.7974 92.8938
lradius 65.2451 0 0
lwrist 16.4334 0 0
lhand -23.7598 -5.7165 -2.3735
lfingers 7.12502 0 0
lthumb 2.7027 23.7333 -2.31502
rclavicle 4.37635e-15 -3.479e-16 -1.65935e-30
rhumerus -46.4367 12.8832 -89.6295
rradius 77.7173 0 0
rwrist -16.9298 0 0
rhand -36.8604 2.65985 -2.10254
rfingers 7.12502 0 0
rthumb -9.93484 -26.9728 -2.0484
35
root 4.28749 16.6403 -24.6812 5.00379 -10.0168 -3.73221
lfemur -21.272 9.87183 -14.185
ltibia 60.9281 0 0
lfoot 11.2315 6.75914 -0.518501
ltoes -4.58741 0 0
rfemur -1.87659 6.19038 28.7812
rtibia 18.6455 0 0
rfoot -9.18614 -1.47748 -0.00394463
rtoes -9.84935 0 0
lowerback 4.37793 -0.063254 1.69121
upperback 0.714213 -0.0678703 2.38609
thorax -1.65506 0.0269295 1.85915
lowerneck -12.7417 -0.0465119 -6.90659
upperneck 2.16857 0.556826 6.96372
head 3.07855 0.475519 3.02319
lclavicle -5.05348e-15 9.24347e-15 1.71849e-31
lhumerus -40.171 -12.2396 93.0674
lradius 64.981 0 0
lwrist 15.8844 0 0
lhand -24.1315 -6.27285 -2.22465
lfingers 7.12502 0 0
lthumb 2.34485 23.2003 -2.16732
rclavicle -5.05348e-15 9.24347e-15 1.71849e-31
rhumerus -45.1516 13.3415 -89.8258
rradius 78.1229 0 0
rwrist -16.6342 0 0
rhand -37.0176 2.08535 -2.07172
rfingers 7.12502 0 0
rthumb -10.0869 -27.5476 -2.01755
36
root 4.30745 16.5798 -24.3637 5.13008 -9.97362 -4.49915
lfemur -23.0471 10.7412 -12.8532
ltibia 63.8126 0 0
lfoot 10.8073 5.37576 -0.530668
ltoes -4.60055 0 0
rfemur -0.923241 6.03259 29.5376
rtibia 19.5445 0 0
rfoot -10.2048 -1.57178 0.0171833
rtoes -5.1772 0 0
lowerback 4.61542 0.016076 2.34537
upperback 0.869406 0.0798516 2.62543
thorax -1.63664 0.0928132 1.69587
lowerneck -13.0083 -0.0494382 -6.62514
upperneck 1.76589 0.566857 6.66243
head 2.98881 0.465908 2.86316
lclavicle -3.62658e-14 -1.53561e-14 -1.84199e-30
lhumerus -40.9913 -11.8092 93.4036
lradius 64.8234 0 0
lwrist 15.3387 0 0
lhand -26.9708 -8.34665 -1.94692
lfingers 7.12502 0 0
lthumb -0.39125 21.3211 -1.8768
rclavicle -3.62658e-14 -1.53561e-14 -1.84199e-30
rhumerus -43.7628 13.7614 -90.0265
rradius 78.2434 0 0
rwrist -16.4142 0 0
rhand -36.936 1.6106 -1.94652
rfingers 7.12502 0 0
rthumb -10.0087 -28.0392 -1.89438
37
root 4.32677 16.5328 -24.0416 5.44786 -9.86514 -5.56329
lfemur -24.9579 11.6409 -11.273
ltibia 66.4858 0 0
lfoot 9.76359 4.30682 -0.494475
ltoes -8.40233 0 0
rfemur -0.0546305 5.56289 30.5621
rtibia 20.0644 0 0
rfoot -10.739 -2.73129 0.0349722
rtoes 7.46754 0 0
lowerback 4.59325 0.0576419 3.34485
upperback 1.01938 0.184792 2.91047
thorax -1.47235 0.136378 1.38752
lowerneck -13.4463 -0.0734937 -6.29933
upperneck 1.60218 0.541612 6.38566
head 3.01599 0.437077 2.71542
lclavicle -5.59392e-15 -1.09828e-14 -1.79653e-31
lhumerus -41.7147 -11.34 93.5757
lradius 64.7415 0 0
lwrist 15.1974 0 0
lhand -23.8143 -5.123 -2.20934
lfingers 7.12502 0 0
lthumb 2.65045 24.348 -2.1552
rclavicle -5.59392e-15 -1.09828e-14 -1.79653e-31
rhumerus -42.3096 14.3258 -90.2643
rradius 78.2977 0 0
rwrist -16.3086 0 0
rhand -36.8274 2.9296 -2.01704
rfingers 7.12502 0 0
rthumb -9.90321 -26.7082 -1.96516
38
root 4.349 16.5068 -23.7142 5.56124 -9.57685 -6.0612
lfemur -26.8319 12.1303 -10.4821
ltibia 68.836 0 0
lfoot 9.38798 3.41727 -0.501871
ltoes -8.85161 0 0
rfemur 0.867807 4.81349 30.9673
rtibia 20.3619 0 0
rfoot -10.3003 -2.38136 0.0976109
rtoes -10.6859 0 0
lowerback 4.62054 0.0273308 3.89793
upperback 1.19657 0.16882 2.99902
thorax -1.29917 0.124848 1.13584
lowerneck -13.8062 -0.071097 -6.02994
upperneck 1.35349 0.559146 6.23183
head 3.00583 0.423565 2.62466
lclavicle -5.94181e-15 -3.9757e-15 1.15089e-30
lhumerus -42.2786 -10.9848 93.5999
lradius 64.5145 0 0
lwrist 15.4748 0 0
lhand -21 -4.03335 -2.66786
lfingers 7.12502 0 0
lthumb 5.3543 25.0918 -2.64892
rclavicle -5.94181e-15 -3.9757e-15 1.15089e-30
rhumerus -40.83 14.7999 -90.4469
rradius 78.3956 0 0
rwrist -16.0532 0 0
rhand -37.1523 3.2507 -2.26729
rfingers 7.12502 0 0
rthumb -10.2152 -26.3431 -2.2122
39
root 4.37598 16.486 -23.3926 5.13211 -8.8838 -5.85232
lfemur -28.4379 11.699 -10.5606
ltibia 70.8029 0 0
lfoot 9.26305 2.89397 -0.49144
ltoes -7.20358 0 0
rfemur 2.30361 4.04477 30.6165
rtibia 20.5292 0 0
rfoot -11.3412 -3.54379 0.0644114
rtoes 6.12511 0 0
lowerback 5.2057 -0.188391 3.79157
upperback 1.33952 -0.0892968 2.96917
thorax -1.46816 -0.00743955 1.14186
lowerneck -13.9591 -0.0542453 -6.02954
upperneck 1.15469 0.615022 6.13243
head 2.95846 0.43766 2.59899
lclavicle 3.24265e-15 -1.97791e-14 -5.11393e-30
lhumerus -42.9275 -10.4486 93.6552
lradius 64.2376 0 0
lwrist 15.8263 0 0
lhand -17.1399 -4.02695 -3.31048
lfingers 7.12502 0 0
lthumb 9.0465 24.5018 -3.39419
rclavicle 3.24265e-15 -1.97791e-14 -5.11393e-30
rhumerus -39.5278 15.3728 -90.5452
rradius 78.4131 0 0
rwrist -15.6611 0 0
rhand -37.7461 1.42975 -2.47834
rfingers 7.12502 0 0
rthumb -10.7871 -28.1252 -2.41882
40
root 4.3818 16.4788 -23.0807 5.43779 -8.99758 -5.78624
lfemur -30.712 11.8587 -10.6048
ltibia 72.4463 0 0
lfoot 9.53528 2.54338 -0.466503
ltoes -5.85595 0 0
rfemur 2.99307 4.49575 30.1318
rtibia 20.6478 0 0
rfoot -10.9392 -2.7433 0.1381
rtoes -7.33732 0 0
lowerback 5.16495 -0.0575861 3.61629
upperback 1.10889 0.0786711 3.06146
thorax -1.69393 0.0802616 1.40292
lowerneck -13.2436 -0.141312 -6.22195
upperneck 0.747066 0.499644 6.11112
head 2.68335 0.379219 2.59105
lclavicle 1.88907e-14 -7.90169e-15 5.41423e-32
lhumerus -43.9148 -9.8574 93.8511
lradius 63.9903 0 0
lwrist 16.1743 0 0
lhand -15.489 -3.81385 -3.49705
lfingers 7.12502 0 0
lthumb 10.6204 24.4437 -3.64352
rclavicle 1.88907e-14 -7.90169e-15 5.41423e-32
rhumerus -38.7661 15.8763 -90.5992
rradius 78.4299 0 0
rwrist -15.326 0 0
rhand -38.0157 -0.2256 -2.48861
rfingers 7.12502 0 0
rthumb -11.0473 -29.7718 -2.42834
